<svg xmlns="http://www.w3.org/2000/svg" viewBox="0 0 800 800"><defs><style>.cls-1{isolation:isolate;}.cls-2{fill:#00aeef;}.cls-3,.cls-6{fill:#fff;}.cls-4{mix-blend-mode:multiply;opacity:0.65;}.cls-5{fill:#07509f;}.cls-6{font-size:97.13px;font-family:ArialRoundedMTBold, Arial Rounded MT Bold;}.cls-7{fill:#9b8579;}</style></defs><g class="cls-1"><g id="Layer_1" data-name="Layer 1"><rect class="cls-2" width="800" height="800"/><path class="cls-3" d="M694.64,291.55a14.57,14.57,0,0,1-14.57,14.57H520.35a96.85,96.85,0,0,0-50.2,14c-.85-1.62-1.7-3.22-2.58-4.81-.45-.79-.91-1.59-1.35-2.38Q462.83,307,459,301.46c-1.42-2.08-2.95-4-4.44-6A126.24,126.24,0,0,1,520.35,277H680.07a14.58,14.58,0,0,1,14.57,14.57Z"/><path class="cls-3" d="M466.22,313q-3.44-5.9-7.25-11.49c-1.4-2.07-2.94-4-4.43-6h0c1.49,2,3,3.95,4.44,6Q462.82,307,466.22,313Z"/><path class="cls-3" d="M720.18,347.47A14.56,14.56,0,0,1,705.62,362H520.35a41.82,41.82,0,0,0-29.53,12.23c-.8.8-1.54,1.64-2.25,2.5q-.66-4.41-1.54-8.75c-.56-2.89-1.21-5.76-1.92-8.6-.47-1.9-1-3.78-1.51-5.65-.22-.74-.44-1.48-.68-2.21-.05-.23-.13-.46-.2-.69-.38-1.24-.79-2.47-1.2-3.7-.24-.73-.49-1.45-.74-2.17h0a70.61,70.61,0,0,1,39.57-12.09H705.62a14.58,14.58,0,0,1,14.56,14.57Z"/><path class="cls-3" d="M485.11,359.42c-.48-1.9-1-3.78-1.52-5.65-.21-.74-.43-1.48-.67-2.21.24.73.46,1.47.68,2.21C484.13,355.64,484.64,357.52,485.11,359.42Z"/><polygon class="cls-3" points="477.12 403.8 478.58 403.8 478.58 403.79 477.12 403.79 477.12 403.8"/><path class="cls-3" d="M666.2,236.6a14.57,14.57,0,0,1-14.57,14.57H520.35a151.51,151.51,0,0,0-82.72,24.47h0c-1.28-1.29-2.6-2.56-3.91-3.81q-4-3.75-8.14-7.27c-1.41-1.17-2.81-2.32-4.23-3.46h0c-1.11-.88-2.21-1.72-3.34-2.56s-2.25-1.66-3.37-2.48a180.54,180.54,0,0,1,105.73-34H651.63A14.6,14.6,0,0,1,666.2,236.6Z"/><path class="cls-3" d="M421.33,261.11c-1.11-.86-2.21-1.72-3.34-2.56C419.12,259.39,420.22,260.23,421.33,261.11Z"/><path class="cls-3" d="M470.13,320.14A100.7,100.7,0,0,0,460.07,327a180.31,180.31,0,0,0-14.55-25.54c2.91-2.14,5.91-4.12,9-6h0c1.49,2,3,3.95,4.44,6q3.83,5.58,7.23,11.49c.44.79.9,1.59,1.35,2.38l1.3,2.39C469.28,318.53,469.71,319.33,470.13,320.14Z"/><path class="cls-4" d="M470.13,320.14A100.7,100.7,0,0,0,460.07,327a180.31,180.31,0,0,0-14.55-25.54c2.91-2.14,5.91-4.12,9-6h0c1.49,2,3,3.95,4.44,6q3.83,5.58,7.23,11.49c.44.79.9,1.59,1.35,2.38l1.3,2.39C469.28,318.53,469.71,319.33,470.13,320.14Z"/><path class="cls-3" d="M488.55,376.76a41.8,41.8,0,0,0-10,27h-1.46a180.77,180.77,0,0,0-7-50A71.35,71.35,0,0,1,480.78,345c.25.72.5,1.44.74,2.17.41,1.22.82,2.46,1.2,3.7.07.23.15.46.2.69.24.73.46,1.47.68,2.21.53,1.87,1,3.75,1.51,5.65.71,2.84,1.36,5.71,1.92,8.6.14.72.29,1.45.43,2.17C487.86,372.37,488.22,374.55,488.55,376.76Z"/><path class="cls-4" d="M488.55,376.76a41.8,41.8,0,0,0-10,27h-1.46a180.77,180.77,0,0,0-7-50A71.35,71.35,0,0,1,480.78,345c.25.72.5,1.44.74,2.17.41,1.22.82,2.46,1.2,3.7.07.23.15.46.2.69.24.73.46,1.47.68,2.21.53,1.87,1,3.75,1.51,5.65.71,2.84,1.36,5.71,1.92,8.6.14.72.29,1.45.43,2.17C487.86,372.37,488.22,374.55,488.55,376.76Z"/><path class="cls-3" d="M437.62,275.65c-2.78,1.78-5.49,3.66-8.13,5.6a181.49,181.49,0,0,0-21.61-20.14c2.2-1.74,4.42-3.39,6.73-5.05h0c1.12.82,2.26,1.65,3.37,2.48s2.23,1.68,3.34,2.56h0c1.42,1.14,2.82,2.29,4.23,3.46s2.76,2.37,4.11,3.58,2.71,2.44,4,3.69S436.34,274.36,437.62,275.65Z"/><path class="cls-4" d="M437.62,275.65c-2.78,1.78-5.49,3.66-8.13,5.6a181.49,181.49,0,0,0-21.61-20.14c2.2-1.74,4.42-3.39,6.73-5.05h0c1.12.82,2.26,1.65,3.37,2.48s2.23,1.68,3.34,2.56h0c1.42,1.14,2.82,2.29,4.23,3.46s2.76,2.37,4.11,3.58,2.71,2.44,4,3.69S436.34,274.36,437.62,275.65Z"/><path class="cls-5" d="M422.18,403.8H393a97,97,0,0,0-15.77-53.1,98.42,98.42,0,0,0-12.87-16,90.67,90.67,0,0,0-8.78-7.74,97.05,97.05,0,0,0-60.25-20.88H135.62a14.57,14.57,0,0,1,0-29.14H295.37a126.63,126.63,0,0,1,96.45,44.61,129.25,129.25,0,0,1,16.06,23.67A126.43,126.43,0,0,1,422.18,403.8Z"/><path class="cls-5" d="M477.13,403.8H448a152.59,152.59,0,0,0-40.1-103v0a154.93,154.93,0,0,0-21.66-19.49,151.63,151.63,0,0,0-90.85-30.07H164.09a14.57,14.57,0,1,1,0-29.14H295.37a181.41,181.41,0,0,1,134.12,59.21,184.22,184.22,0,0,1,16,20.21A180.8,180.8,0,0,1,477.13,403.8Z"/><path class="cls-5" d="M366.27,403.79H337.13A41.79,41.79,0,0,0,295.36,362H110.08a14.57,14.57,0,0,1-14.57-14.57h0a14.57,14.57,0,0,1,14.57-14.57H295.36a71,71,0,0,1,70.91,70.9Z"/><text class="cls-6" transform="translate(128.53 552.06)">RKSI </text><text class="cls-6" transform="translate(391.47 553.23)">BOOK</text><path class="cls-7" d="M746.22,413.67v10.42a9.87,9.87,0,0,1-9.86,9.88h-657a9.87,9.87,0,0,1-9.87-9.88V413.67a9.86,9.86,0,0,1,9.87-9.87h657A9.87,9.87,0,0,1,746.22,413.67Z"/><rect class="cls-5" x="121.05" y="454.92" width="573.58" height="15.09" rx="7.54"/><rect class="cls-5" x="121.05" y="562.88" width="573.58" height="15.09" rx="7.54"/></g></g></svg>