<svg xmlns="http://www.w3.org/2000/svg" viewBox="0 0 800 800"><defs><style>.cls-1{isolation:isolate;}.cls-2{fill:#be1e2d;}.cls-3,.cls-5{fill:#fff;}.cls-4{mix-blend-mode:multiply;opacity:0.65;}.cls-5{font-size:97.13px;font-family:ArialRoundedMTBold, Arial Rounded MT Bold;}.cls-6{fill:#9b8579;}</style></defs><g class="cls-1"><g id="Layer_1" data-name="Layer 1"><rect class="cls-2" x="-1.45" y="0.74" width="802.84" height="800"/><path class="cls-3" d="M657,304.46A14.57,14.57,0,0,1,642.41,319H482.69a96.87,96.87,0,0,0-50.2,14q-1.26-2.43-2.58-4.81c-.44-.79-.89-1.59-1.35-2.38s-.91-1.56-1.38-2.34q-2.78-4.68-5.84-9.15c-1.42-2.08-2.95-4-4.44-6a126.23,126.23,0,0,1,65.79-18.45H642.41A14.58,14.58,0,0,1,657,304.46Z"/><path class="cls-3" d="M427.18,323.52q-2.79-4.66-5.85-9.15c-1.42-2.07-2.95-4-4.44-6a0,0,0,0,1,0,0c1.49,2,3,4,4.44,6Q424.4,318.84,427.18,323.52Z"/><path class="cls-3" d="M682.54,360.38A14.57,14.57,0,0,1,668,375H482.69a41.78,41.78,0,0,0-29.52,12.23c-.79.8-1.54,1.64-2.26,2.5-.18-1.23-.38-2.45-.59-3.67s-.42-2.43-.66-3.63-.46-2.38-.71-3.56c0,0,0-.06,0-.09-.25-1.19-.51-2.37-.79-3.55q-.33-1.43-.69-2.85c-.46-1.9-1-3.78-1.5-5.65-.34-1.17-.7-2.32-1.07-3.47l-.06-.19c-.15-.5-.31-1-.47-1.48s-.31-1-.48-1.46c-.24-.73-.48-1.46-.73-2.18a70.49,70.49,0,0,1,39.55-12.09H668a14.58,14.58,0,0,1,14.57,14.57Z"/><path class="cls-3" d="M446,366.68c.53,1.87,1,3.75,1.5,5.65-.48-1.9-1-3.78-1.52-5.65-.33-1.16-.68-2.32-1.05-3.47C445.25,364.36,445.61,365.51,446,366.68Z"/><polygon class="cls-3" points="439.47 416.71 440.93 416.71 440.93 416.7 439.47 416.7 439.47 416.71"/><path class="cls-3" d="M628.54,249.51A14.57,14.57,0,0,1,614,264.08H482.69A151.57,151.57,0,0,0,400,288.56c-.8-.8-1.61-1.6-2.42-2.38s-1.63-1.57-2.45-2.33q-2.25-2.12-4.57-4.13-1.17-1-2.34-2c-.78-.67-1.57-1.32-2.37-2a2.11,2.11,0,0,0-.23-.19q-.94-.78-1.89-1.53c-.55-.44-1.1-.86-1.66-1.29-1.67-1.27-3.37-2.51-5.07-3.75a180.58,180.58,0,0,1,105.73-34H614a14.58,14.58,0,0,1,14.57,14.57Z"/><path class="cls-3" d="M385.58,275.55,383.67,274,382,272.73c.56.43,1.11.85,1.66,1.29S385,275,385.58,275.55Z"/><path class="cls-3" d="M432.48,333.05a100.84,100.84,0,0,0-10.07,6.86,178.32,178.32,0,0,0-14.54-25.54c2.92-2.14,5.92-4.12,9-6a0,0,0,0,1,0,0c1.49,2,3,4,4.44,6q3.06,4.47,5.84,9.15.7,1.17,1.38,2.34c.46.79.91,1.59,1.35,2.38Q431.23,330.63,432.48,333.05Z"/><path class="cls-4" d="M432.48,333.05a100.84,100.84,0,0,0-10.07,6.86,178.32,178.32,0,0,0-14.54-25.54c2.92-2.14,5.92-4.12,9-6a0,0,0,0,1,0,0c1.49,2,3,4,4.44,6q3.06,4.47,5.84,9.15.7,1.17,1.38,2.34c.46.79.91,1.59,1.35,2.38Q431.23,330.63,432.48,333.05Z"/><path class="cls-3" d="M450.9,389.67a41.81,41.81,0,0,0-10,27h-1.46a181.15,181.15,0,0,0-7-50,70.84,70.84,0,0,1,10.65-8.77c.25.72.5,1.44.74,2.17.17.48.33,1,.48,1.46s.31,1,.47,1.48l.06.19c.37,1.15.73,2.3,1.07,3.47.53,1.87,1,3.75,1.5,5.65q.36,1.41.69,2.85c.28,1.18.54,2.36.79,3.55,0,0,0,.06,0,.09.25,1.18.49,2.37.71,3.56s.45,2.42.66,3.63S450.72,388.45,450.9,389.67Z"/><path class="cls-4" d="M450.9,389.67a41.81,41.81,0,0,0-10,27h-1.46a181.15,181.15,0,0,0-7-50,70.84,70.84,0,0,1,10.65-8.77c.25.72.5,1.44.74,2.17.17.48.33,1,.48,1.46s.31,1,.47,1.48l.06.19c.37,1.15.73,2.3,1.07,3.47.53,1.87,1,3.75,1.5,5.65q.36,1.41.69,2.85c.28,1.18.54,2.36.79,3.55,0,0,0,.06,0,.09.25,1.18.49,2.37.71,3.56s.45,2.42.66,3.63S450.72,388.45,450.9,389.67Z"/><path class="cls-3" d="M400,288.56c-2.78,1.78-5.49,3.66-8.11,5.6A182.44,182.44,0,0,0,370.22,274c2.2-1.74,4.43-3.39,6.73-5h0c1.7,1.24,3.4,2.48,5.07,3.75.56.43,1.11.85,1.66,1.29s1.26,1,1.89,1.53a2.11,2.11,0,0,1,.23.19c.79.65,1.59,1.31,2.37,2l2.34,2c1.54,1.35,3.07,2.73,4.57,4.13.83.77,1.64,1.55,2.45,2.33S399.16,287.76,400,288.56Z"/><path class="cls-4" d="M400,288.56c-2.78,1.78-5.49,3.66-8.11,5.6A182.44,182.44,0,0,0,370.22,274c2.2-1.74,4.43-3.39,6.73-5h0c1.7,1.24,3.4,2.48,5.07,3.75.56.43,1.11.85,1.66,1.29s1.26,1,1.89,1.53a2.11,2.11,0,0,1,.23.19c.79.65,1.59,1.31,2.37,2l2.34,2c1.54,1.35,3.07,2.73,4.57,4.13.83.77,1.64,1.55,2.45,2.33S399.16,287.76,400,288.56Z"/><path class="cls-3" d="M439.47,416.71H410.33a151.79,151.79,0,0,0-24.12-82.24,148.85,148.85,0,0,0-16-20.78v0a153.81,153.81,0,0,0-21.66-19.49,151.6,151.6,0,0,0-90.85-30.07H126.43a14.57,14.57,0,0,1,0-29.14H257.71a181.62,181.62,0,0,1,134.14,59.21,186.55,186.55,0,0,1,16,20.21,184,184,0,0,1,24.61,52.31A181.15,181.15,0,0,1,439.47,416.71Z"/><path class="cls-3" d="M384.53,416.71H355.39a96.9,96.9,0,0,0-15.77-53.1,98.48,98.48,0,0,0-12.88-16,89.5,89.5,0,0,0-8.78-7.74A97,97,0,0,0,257.71,319H98a14.57,14.57,0,0,1,0-29.14H257.71a126.55,126.55,0,0,1,96.45,44.61,128.26,128.26,0,0,1,16.06,23.67A126.32,126.32,0,0,1,384.53,416.71Z"/><path class="cls-3" d="M328.62,416.7H299.48a41.77,41.77,0,0,0-41.77-41.76H72.42a14.57,14.57,0,0,1-14.56-14.57h0A14.56,14.56,0,0,1,72.42,345.8H257.71a71,71,0,0,1,70.91,70.9Z"/><text class="cls-5" transform="translate(90.88 564.97)">RKSI </text><text class="cls-5" transform="translate(353.81 566.14)">BOOK</text><path class="cls-6" d="M708.57,426.58V437a9.87,9.87,0,0,1-9.87,9.88h-657A9.88,9.88,0,0,1,31.86,437V426.58a9.87,9.87,0,0,1,9.88-9.87h657A9.87,9.87,0,0,1,708.57,426.58Z"/><rect class="cls-3" x="83.4" y="467.83" width="573.58" height="15.09" rx="7.54"/><rect class="cls-3" x="83.4" y="575.79" width="573.58" height="15.09" rx="7.54"/></g></g></svg>