<svg xmlns="http://www.w3.org/2000/svg" viewBox="0 0 800 800"><defs><style>.cls-1{isolation:isolate;}.cls-2,.cls-5{fill:#fff;}.cls-3{mix-blend-mode:multiply;opacity:0.65;}.cls-4{fill:#07509f;}.cls-5{font-size:97.13px;font-family:ArialRoundedMTBold, Arial Rounded MT Bold;}.cls-6{fill:#9b8579;}</style></defs><g class="cls-1"><g id="Layer_1" data-name="Layer 1"><path class="cls-2" d="M725.87,291.55a14.57,14.57,0,0,1-14.57,14.57H551.58a96.87,96.87,0,0,0-50.2,14q-1.26-2.43-2.58-4.81L497.45,313q-3.39-5.91-7.22-11.49c-1.43-2.08-3-4-4.44-6A126.23,126.23,0,0,1,551.58,277H711.3a14.58,14.58,0,0,1,14.57,14.57Z"/><path class="cls-2" d="M497.45,313q-3.42-5.9-7.24-11.49c-1.41-2.07-2.94-4-4.43-6h0c1.49,2,3,3.95,4.44,6Q494.05,307,497.45,313Z"/><path class="cls-2" d="M751.42,347.47A14.57,14.57,0,0,1,736.85,362H551.58a41.82,41.82,0,0,0-29.53,12.23c-.79.8-1.53,1.64-2.25,2.5q-.66-4.41-1.53-8.75c-.57-2.89-1.22-5.76-1.93-8.6-.47-1.9-1-3.78-1.51-5.65-.22-.74-.44-1.48-.67-2.21q-.09-.35-.21-.69c-.38-1.24-.78-2.47-1.19-3.7-.24-.73-.49-1.45-.74-2.17h0a70.55,70.55,0,0,1,39.56-12.09H736.85a14.58,14.58,0,0,1,14.57,14.57Z"/><path class="cls-2" d="M516.34,359.42c-.48-1.9-1-3.78-1.52-5.65-.21-.74-.43-1.48-.66-2.21.23.73.45,1.47.67,2.21C515.36,355.64,515.87,357.52,516.34,359.42Z"/><polygon class="cls-2" points="508.36 403.8 509.82 403.8 509.82 403.79 508.36 403.79 508.36 403.8"/><path class="cls-2" d="M697.43,236.6a14.57,14.57,0,0,1-14.57,14.57H551.58a151.54,151.54,0,0,0-82.72,24.47h0c-1.28-1.29-2.59-2.56-3.91-3.81q-4-3.75-8.14-7.27c-1.4-1.17-2.8-2.32-4.23-3.46h0c-1.1-.88-2.21-1.72-3.33-2.56l-3.38-2.48a180.58,180.58,0,0,1,105.73-34H682.86a14.58,14.58,0,0,1,14.57,14.57Z"/><path class="cls-2" d="M452.56,261.11c-1.1-.86-2.21-1.72-3.33-2.56C450.35,259.39,451.46,260.23,452.56,261.11Z"/><path class="cls-2" d="M501.36,320.14A101.86,101.86,0,0,0,491.3,327a179.28,179.28,0,0,0-14.54-25.54c2.91-2.14,5.91-4.12,9-6h0c1.49,2,3,3.95,4.44,6q3.82,5.58,7.22,11.49l1.35,2.38,1.3,2.39Z"/><path class="cls-3" d="M501.36,320.14A101.86,101.86,0,0,0,491.3,327a179.28,179.28,0,0,0-14.54-25.54c2.91-2.14,5.91-4.12,9-6h0c1.49,2,3,3.95,4.44,6q3.82,5.58,7.22,11.49l1.35,2.38,1.3,2.39Z"/><path class="cls-2" d="M519.79,376.76a41.75,41.75,0,0,0-10,27h-1.46a180.77,180.77,0,0,0-7-50A70.92,70.92,0,0,1,512,345c.25.72.5,1.44.74,2.17.41,1.22.81,2.46,1.19,3.7q.12.35.21.69c.23.73.45,1.47.67,2.21.53,1.87,1,3.75,1.51,5.65.71,2.84,1.36,5.71,1.93,8.6l.42,2.17C519.09,372.37,519.46,374.55,519.79,376.76Z"/><path class="cls-3" d="M519.79,376.76a41.75,41.75,0,0,0-10,27h-1.46a180.77,180.77,0,0,0-7-50A70.92,70.92,0,0,1,512,345c.25.72.5,1.44.74,2.17.41,1.22.81,2.46,1.19,3.7q.12.35.21.69c.23.73.45,1.47.67,2.21.53,1.87,1,3.75,1.51,5.65.71,2.84,1.36,5.71,1.93,8.6l.42,2.17C519.09,372.37,519.46,374.55,519.79,376.76Z"/><path class="cls-2" d="M468.85,275.65c-2.78,1.78-5.49,3.66-8.12,5.6a182.35,182.35,0,0,0-21.62-20.14c2.2-1.74,4.43-3.39,6.73-5.05h0l3.38,2.48c1.12.84,2.23,1.68,3.33,2.56h0c1.43,1.14,2.83,2.29,4.23,3.46s2.76,2.37,4.12,3.58,2.7,2.44,4,3.69S467.57,274.36,468.85,275.65Z"/><path class="cls-3" d="M468.85,275.65c-2.78,1.78-5.49,3.66-8.12,5.6a182.35,182.35,0,0,0-21.62-20.14c2.2-1.74,4.43-3.39,6.73-5.05h0l3.38,2.48c1.12.84,2.23,1.68,3.33,2.56h0c1.43,1.14,2.83,2.29,4.23,3.46s2.76,2.37,4.12,3.58,2.7,2.44,4,3.69S467.57,274.36,468.85,275.65Z"/><path class="cls-4" d="M453.42,403.8H424.28a97,97,0,0,0-15.77-53.1,98.48,98.48,0,0,0-12.88-16,90.67,90.67,0,0,0-8.78-7.74,97,97,0,0,0-60.25-20.88H166.86a14.57,14.57,0,0,1,0-29.14H326.6a126.55,126.55,0,0,1,96.45,44.61,128.75,128.75,0,0,1,16.06,23.67A126.32,126.32,0,0,1,453.42,403.8Z"/><path class="cls-4" d="M508.36,403.8H479.22a151.79,151.79,0,0,0-24.12-82.24,149.61,149.61,0,0,0-16-20.78v0a153.81,153.81,0,0,0-21.66-19.49,151.6,151.6,0,0,0-90.85-30.07H195.32a14.57,14.57,0,0,1,0-29.14H326.6a181.52,181.52,0,0,1,134.13,59.21,185.42,185.42,0,0,1,16,20.21,180.88,180.88,0,0,1,31.6,102.34Z"/><path class="cls-4" d="M397.51,403.79H368.37A41.79,41.79,0,0,0,326.6,362H141.31a14.56,14.56,0,0,1-14.56-14.57h0a14.56,14.56,0,0,1,14.56-14.57H326.6a71,71,0,0,1,70.91,70.9Z"/><text class="cls-5" transform="translate(159.77 552.06)">RKSI </text><text class="cls-5" transform="translate(422.7 553.23)">BOOK</text><path class="cls-6" d="M777.46,413.67v10.42a9.87,9.87,0,0,1-9.87,9.88h-657a9.87,9.87,0,0,1-9.87-9.88V413.67a9.87,9.87,0,0,1,9.87-9.87h657A9.87,9.87,0,0,1,777.46,413.67Z"/><rect class="cls-4" x="152.29" y="454.92" width="573.58" height="15.09" rx="7.54"/><rect class="cls-4" x="152.29" y="562.88" width="573.58" height="15.09" rx="7.54"/></g></g></svg>