<svg xmlns="http://www.w3.org/2000/svg" viewBox="0 0 800 800"><defs><style>.cls-1{isolation:isolate;}.cls-2{fill:#be1e2d;}.cls-3,.cls-5{fill:#fff;}.cls-4{mix-blend-mode:multiply;opacity:0.65;}.cls-5{font-size:109.34px;font-family:ArialRoundedMTBold, Arial Rounded MT Bold;}.cls-6{fill:#9b8579;}</style></defs><g class="cls-1"><g id="Layer_1" data-name="Layer 1"><rect class="cls-2" x="-1.42" width="802.84" height="800"/><path class="cls-3" d="M693.13,332.87a14.57,14.57,0,0,1-14.57,14.57H518.84a96.87,96.87,0,0,0-50.2,14q-1.26-2.43-2.58-4.81c-.44-.79-.89-1.59-1.35-2.38s-.91-1.56-1.38-2.34q-2.77-4.68-5.84-9.15c-1.42-2.08-2.95-4-4.44-6a126.23,126.23,0,0,1,65.79-18.45H678.56a14.58,14.58,0,0,1,14.57,14.57Z"/><path class="cls-3" d="M463.33,351.93q-2.79-4.67-5.85-9.15c-1.42-2.07-3-4-4.44-6h0c1.49,2,3,3.95,4.44,6Q460.55,347.25,463.33,351.93Z"/><path class="cls-3" d="M718.69,388.79a14.57,14.57,0,0,1-14.57,14.57H518.84a41.78,41.78,0,0,0-29.52,12.23c-.79.8-1.54,1.64-2.26,2.5-.18-1.23-.38-2.45-.59-3.67s-.42-2.43-.66-3.63-.46-2.38-.71-3.56c0,0,0-.06,0-.09-.25-1.19-.51-2.37-.79-3.55q-.33-1.43-.69-2.85c-.46-1.9-1-3.78-1.5-5.65-.34-1.17-.7-2.32-1.07-3.47l-.06-.19c-.15-.5-.31-1-.47-1.48s-.31-1-.48-1.46c-.24-.73-.48-1.46-.73-2.18a70.49,70.49,0,0,1,39.55-12.09H704.12a14.58,14.58,0,0,1,14.57,14.57Z"/><path class="cls-3" d="M482.1,395.09c.53,1.87,1,3.75,1.5,5.65-.48-1.9-1-3.78-1.52-5.65-.33-1.16-.68-2.32-1.05-3.47C481.4,392.77,481.76,393.92,482.1,395.09Z"/><polygon class="cls-3" points="475.62 445.12 477.07 445.12 477.07 445.11 475.62 445.11 475.62 445.12"/><path class="cls-3" d="M664.69,277.92a14.57,14.57,0,0,1-14.57,14.57H518.84A151.57,151.57,0,0,0,436.11,317c-.8-.8-1.61-1.6-2.42-2.38s-1.63-1.57-2.45-2.33q-2.25-2.11-4.57-4.13-1.17-1-2.34-2c-.78-.67-1.57-1.32-2.37-2a2.11,2.11,0,0,0-.23-.19q-.94-.78-1.89-1.53c-.55-.44-1.1-.86-1.66-1.29-1.67-1.27-3.37-2.51-5.07-3.75a180.58,180.58,0,0,1,105.73-34H650.12a14.58,14.58,0,0,1,14.57,14.57Z"/><path class="cls-3" d="M421.73,304l-1.91-1.53-1.64-1.29c.56.43,1.11.85,1.66,1.29S421.1,303.44,421.73,304Z"/><path class="cls-3" d="M468.63,361.46a100.84,100.84,0,0,0-10.07,6.86A178.32,178.32,0,0,0,444,342.78c2.92-2.14,5.92-4.12,9-6h0c1.49,2,3,3.95,4.44,6q3.06,4.47,5.84,9.15.71,1.17,1.38,2.34c.46.79.91,1.59,1.35,2.38Q467.38,359,468.63,361.46Z"/><path class="cls-4" d="M468.63,361.46a100.84,100.84,0,0,0-10.07,6.86A178.32,178.32,0,0,0,444,342.78c2.92-2.14,5.92-4.12,9-6h0c1.49,2,3,3.95,4.44,6q3.06,4.47,5.84,9.15.71,1.17,1.38,2.34c.46.79.91,1.59,1.35,2.38Q467.38,359,468.63,361.46Z"/><path class="cls-3" d="M487.05,418.08a41.81,41.81,0,0,0-10,27h-1.46a181.15,181.15,0,0,0-7-50,70.84,70.84,0,0,1,10.65-8.77c.25.72.5,1.44.74,2.17.17.48.33,1,.48,1.46s.31,1,.47,1.48l.06.19c.37,1.15.73,2.3,1.07,3.47.53,1.87,1,3.75,1.5,5.65q.36,1.41.69,2.85c.28,1.18.54,2.36.79,3.55,0,0,0,.06,0,.09.25,1.18.49,2.37.71,3.56s.45,2.42.66,3.63S486.87,416.86,487.05,418.08Z"/><path class="cls-4" d="M487.05,418.08a41.81,41.81,0,0,0-10,27h-1.46a181.15,181.15,0,0,0-7-50,70.84,70.84,0,0,1,10.65-8.77c.25.72.5,1.44.74,2.17.17.48.33,1,.48,1.46s.31,1,.47,1.48l.06.19c.37,1.15.73,2.3,1.07,3.47.53,1.87,1,3.75,1.5,5.65q.36,1.41.69,2.85c.28,1.18.54,2.36.79,3.55,0,0,0,.06,0,.09.25,1.18.49,2.37.71,3.56s.45,2.42.66,3.63S486.87,416.86,487.05,418.08Z"/><path class="cls-3" d="M436.11,317c-2.78,1.78-5.49,3.66-8.11,5.6a182.44,182.44,0,0,0-21.63-20.14c2.2-1.74,4.43-3.39,6.73-5.05h0c1.7,1.24,3.4,2.48,5.07,3.75.56.43,1.11.85,1.66,1.29s1.26,1,1.89,1.53a2.11,2.11,0,0,1,.23.19c.79.65,1.59,1.31,2.37,2s1.56,1.33,2.34,2c1.54,1.35,3.07,2.73,4.57,4.13.83.77,1.64,1.55,2.45,2.33S435.31,316.17,436.11,317Z"/><path class="cls-4" d="M436.11,317c-2.78,1.78-5.49,3.66-8.11,5.6a182.44,182.44,0,0,0-21.63-20.14c2.2-1.74,4.43-3.39,6.73-5.05h0c1.7,1.24,3.4,2.48,5.07,3.75.56.43,1.11.85,1.66,1.29s1.26,1,1.89,1.53a2.11,2.11,0,0,1,.23.19c.79.65,1.59,1.31,2.37,2s1.56,1.33,2.34,2c1.54,1.35,3.07,2.73,4.57,4.13.83.77,1.64,1.55,2.45,2.33S435.31,316.17,436.11,317Z"/><path class="cls-3" d="M475.62,445.12H446.48a151.79,151.79,0,0,0-24.12-82.24,148.85,148.85,0,0,0-16-20.78v0a153.81,153.81,0,0,0-21.66-19.49,151.6,151.6,0,0,0-90.85-30.07H162.58a14.57,14.57,0,0,1,0-29.14H293.86A181.62,181.62,0,0,1,428,322.57a186.55,186.55,0,0,1,16,20.21,184,184,0,0,1,24.61,52.31A181.15,181.15,0,0,1,475.62,445.12Z"/><path class="cls-3" d="M420.68,445.12H391.54A96.9,96.9,0,0,0,375.77,392a98.48,98.48,0,0,0-12.88-16,89.5,89.5,0,0,0-8.78-7.74,97,97,0,0,0-60.25-20.88H134.12a14.57,14.57,0,0,1,0-29.14H293.86a126.55,126.55,0,0,1,96.45,44.61,128.26,128.26,0,0,1,16.06,23.67A126.32,126.32,0,0,1,420.68,445.12Z"/><path class="cls-3" d="M364.76,445.11H335.62a41.77,41.77,0,0,0-41.76-41.76H108.57A14.57,14.57,0,0,1,94,388.78h0a14.57,14.57,0,0,1,14.57-14.57H293.86a71,71,0,0,1,70.9,70.9Z"/><text class="cls-5" transform="translate(94 577.08)">RKSI </text><text class="cls-5" transform="translate(389.99 578.39)">BOOK</text><path class="cls-6" d="M744.72,455v10.42a9.87,9.87,0,0,1-9.87,9.88h-657A9.88,9.88,0,0,1,68,465.41V455a9.87,9.87,0,0,1,9.88-9.87h657A9.87,9.87,0,0,1,744.72,455Z"/></g></g></svg>