<svg xmlns="http://www.w3.org/2000/svg" viewBox="0 0 800 800"><defs><style>.cls-1{isolation:isolate;}.cls-2,.cls-4{fill:#fff;}.cls-3{mix-blend-mode:multiply;opacity:0.65;}.cls-4{font-size:97.13px;font-family:ArialRoundedMTBold, Arial Rounded MT Bold;}.cls-5{fill:#9b8579;}</style></defs><g class="cls-1"><g id="Layer_1" data-name="Layer 1"><path class="cls-2" d="M452.7,351.19a96.91,96.91,0,0,1,50.21-14h0V308a126.09,126.09,0,0,0-65.8,18.46c1.49,2,3,3.95,4.44,6A178.88,178.88,0,0,1,452.7,351.19Z"/><path class="cls-2" d="M502.91,364h0A70.52,70.52,0,0,0,463.35,376c1,2.9,1.95,5.82,2.8,8.78a180.4,180.4,0,0,1,5,23c.73-.86,1.47-1.7,2.26-2.5a41.78,41.78,0,0,1,29.52-12.23V364Z"/><polygon class="cls-2" points="459.68 434.85 461.14 434.85 461.14 434.85 459.68 434.85 459.68 434.85"/><path class="cls-2" d="M420.17,306.7a151.55,151.55,0,0,1,82.74-24.47h0V253.09a180.66,180.66,0,0,0-105.74,34c2.28,1.63,4.53,3.31,6.73,5A184,184,0,0,1,420.17,306.7Z"/><path class="cls-2" d="M502.91,282.22H634.19a14.57,14.57,0,0,0,14.57-14.57h0a14.57,14.57,0,0,0-14.57-14.57H502.91Z"/><polygon class="cls-2" points="502.91 282.22 502.91 253.09 502.9 253.09 502.9 282.22 502.91 282.22"/><path class="cls-2" d="M502.91,337.17H662.63A14.57,14.57,0,0,0,677.2,322.6h0A14.58,14.58,0,0,0,662.63,308H502.91Z"/><polygon class="cls-2" points="502.91 337.17 502.91 308.03 502.9 308.03 502.9 337.17 502.91 337.17"/><path class="cls-2" d="M502.91,364v29.14H688.18a14.57,14.57,0,0,0,14.57-14.57h0A14.57,14.57,0,0,0,688.18,364Z"/><polygon class="cls-2" points="502.91 363.95 502.9 363.95 502.9 393.09 502.91 393.09 502.91 363.95"/><path class="cls-2" d="M452.69,351.19a102,102,0,0,0-10.07,6.86,178.26,178.26,0,0,0-14.53-25.54c2.91-2.14,5.92-4.12,9-6,1.49,2,3,3.95,4.43,6A172.38,172.38,0,0,1,452.69,351.19Z"/><path class="cls-3" d="M452.69,351.19a102,102,0,0,0-10.07,6.86,178.26,178.26,0,0,0-14.53-25.54c2.91-2.14,5.92-4.12,9-6,1.49,2,3,3.95,4.43,6A172.38,172.38,0,0,1,452.69,351.19Z"/><path class="cls-2" d="M471.11,407.81a41.81,41.81,0,0,0-10,27h-1.46a180.77,180.77,0,0,0-7-50,70.84,70.84,0,0,1,10.65-8.77q1.52,4.32,2.82,8.77A178.87,178.87,0,0,1,471.11,407.81Z"/><path class="cls-3" d="M471.11,407.81a41.81,41.81,0,0,0-10,27h-1.46a180.77,180.77,0,0,0-7-50,70.84,70.84,0,0,1,10.65-8.77q1.52,4.32,2.82,8.77A178.87,178.87,0,0,1,471.11,407.81Z"/><path class="cls-2" d="M420.19,306.7c-2.79,1.78-5.51,3.66-8.13,5.6a182.44,182.44,0,0,0-21.63-20.14c2.2-1.74,4.44-3.39,6.74-5.05,2.26,1.66,4.53,3.31,6.73,5.05A193.65,193.65,0,0,1,420.19,306.7Z"/><path class="cls-3" d="M420.19,306.7c-2.79,1.78-5.51,3.66-8.13,5.6a182.44,182.44,0,0,0-21.63-20.14c2.2-1.74,4.44-3.39,6.74-5.05,2.26,1.66,4.53,3.31,6.73,5.05A193.65,193.65,0,0,1,420.19,306.7Z"/><path class="cls-2" d="M404.74,434.85H375.6a97,97,0,0,0-15.76-53.1,98.54,98.54,0,0,0-12.89-16,90.56,90.56,0,0,0-8.77-7.74,97.05,97.05,0,0,0-60.25-20.88V308a126.48,126.48,0,0,1,96.44,44.61,127.92,127.92,0,0,1,16.06,23.67A126.32,126.32,0,0,1,404.74,434.85Z"/><path class="cls-2" d="M459.68,434.85H430.55a152,152,0,0,0-24.12-82.24,148.92,148.92,0,0,0-16-20.78v0a153.13,153.13,0,0,0-112.5-49.56V253.09A181.62,181.62,0,0,1,412.06,312.3a186.64,186.64,0,0,1,16,20.21,178.26,178.26,0,0,1,14.53,25.54,176.24,176.24,0,0,1,10.07,26.77A180.77,180.77,0,0,1,459.68,434.85Z"/><path class="cls-2" d="M277.93,253.09v29.14H146.64a14.58,14.58,0,0,1-14.57-14.57h0a14.57,14.57,0,0,1,14.57-14.57Z"/><path class="cls-2" d="M277.93,308v29.14H118.18a14.58,14.58,0,0,1-14.57-14.57h0A14.57,14.57,0,0,1,118.18,308Z"/><path class="cls-2" d="M348.83,434.85H319.69a41.79,41.79,0,0,0-41.76-41.77H92.64a14.57,14.57,0,0,1-14.57-14.57h0a14.57,14.57,0,0,1,14.57-14.57H277.93a71,71,0,0,1,70.9,70.91Z"/><text class="cls-4" transform="translate(111.09 583.12)">RKSI </text><text class="cls-4" transform="translate(374.03 584.28)">BOOK</text><rect class="cls-5" x="52.08" y="434.85" width="676.71" height="30.17" rx="9.87"/><rect class="cls-2" x="103.61" y="485.97" width="573.58" height="15.09" rx="7.54"/><rect class="cls-2" x="103.61" y="593.94" width="573.58" height="15.09" rx="7.54"/></g></g></svg>