<svg xmlns="http://www.w3.org/2000/svg" viewBox="0 0 800 800"><defs><style>.cls-1{isolation:isolate;}.cls-2,.cls-5{fill:#fff;}.cls-3{mix-blend-mode:multiply;opacity:0.65;}.cls-4{fill:#07509f;}.cls-5{font-size:109.34px;font-family:ArialRoundedMTBold, Arial Rounded MT Bold;}.cls-6{fill:#9b8579;}</style></defs><g class="cls-1"><g id="Layer_1" data-name="Layer 1"><path class="cls-2" d="M685.18,330.88a14.57,14.57,0,0,1-14.57,14.57H510.89a96.87,96.87,0,0,0-50.2,14q-1.26-2.43-2.58-4.81c-.44-.79-.89-1.59-1.35-2.38s-.91-1.56-1.38-2.34q-2.78-4.68-5.84-9.15c-1.42-2.08-3-4-4.44-6a126.23,126.23,0,0,1,65.79-18.45H670.61a14.58,14.58,0,0,1,14.57,14.57Z"/><path class="cls-2" d="M455.38,349.94q-2.79-4.67-5.85-9.15c-1.42-2.07-2.95-4-4.44-6h0c1.49,2,3,3.95,4.44,6Q452.6,345.26,455.38,349.94Z"/><path class="cls-2" d="M710.74,386.8a14.57,14.57,0,0,1-14.57,14.57H510.89a41.78,41.78,0,0,0-29.52,12.23c-.79.8-1.54,1.64-2.26,2.5-.18-1.23-.38-2.45-.59-3.67s-.42-2.43-.66-3.63-.46-2.38-.71-3.56c0,0,0-.06,0-.09-.25-1.19-.51-2.37-.79-3.55q-.33-1.43-.69-2.85c-.46-1.9-1-3.78-1.5-5.65-.34-1.17-.7-2.32-1.07-3.47l-.06-.19c-.15-.5-.31-1-.47-1.48s-.31-1-.48-1.46c-.24-.73-.48-1.46-.73-2.18a70.49,70.49,0,0,1,39.55-12.09H696.17a14.58,14.58,0,0,1,14.57,14.57Z"/><path class="cls-2" d="M474.15,393.1c.53,1.87,1,3.75,1.5,5.65-.48-1.9-1-3.78-1.52-5.65-.33-1.16-.68-2.32-1.05-3.47C473.45,390.78,473.81,391.93,474.15,393.1Z"/><polygon class="cls-2" points="467.67 443.13 469.13 443.13 469.13 443.13 467.67 443.13 467.67 443.13"/><path class="cls-2" d="M656.74,275.93a14.57,14.57,0,0,1-14.57,14.57H510.89A151.57,151.57,0,0,0,428.16,315c-.8-.8-1.61-1.6-2.42-2.38s-1.63-1.57-2.45-2.33q-2.25-2.11-4.57-4.13-1.17-1-2.34-2c-.78-.67-1.57-1.32-2.37-2a2.11,2.11,0,0,0-.23-.19q-.94-.78-1.89-1.53c-.55-.44-1.1-.86-1.66-1.29-1.67-1.27-3.37-2.51-5.07-3.75a180.58,180.58,0,0,1,105.73-34H642.17a14.58,14.58,0,0,1,14.57,14.57Z"/><path class="cls-2" d="M413.78,302l-1.91-1.53-1.64-1.29c.56.43,1.11.85,1.66,1.29S413.15,301.45,413.78,302Z"/><path class="cls-2" d="M460.68,359.47a100.84,100.84,0,0,0-10.07,6.86,178.32,178.32,0,0,0-14.54-25.54c2.92-2.14,5.92-4.12,9-6h0c1.49,2,3,3.95,4.44,6q3.06,4.47,5.84,9.15.71,1.17,1.38,2.34c.46.79.91,1.59,1.35,2.38Q459.43,357,460.68,359.47Z"/><path class="cls-3" d="M460.68,359.47a100.84,100.84,0,0,0-10.07,6.86,178.32,178.32,0,0,0-14.54-25.54c2.92-2.14,5.92-4.12,9-6h0c1.49,2,3,3.95,4.44,6q3.06,4.47,5.84,9.15.71,1.17,1.38,2.34c.46.79.91,1.59,1.35,2.38Q459.43,357,460.68,359.47Z"/><path class="cls-2" d="M479.1,416.09a41.81,41.81,0,0,0-10,27h-1.46a181.15,181.15,0,0,0-7-50,70.84,70.84,0,0,1,10.65-8.77c.25.72.5,1.44.74,2.17.17.48.33,1,.48,1.46s.31,1,.47,1.48l.06.19c.37,1.15.73,2.3,1.07,3.47.53,1.87,1,3.75,1.5,5.65q.36,1.41.69,2.85c.28,1.18.54,2.36.79,3.55,0,0,0,.06,0,.09.25,1.18.49,2.37.71,3.56s.45,2.42.66,3.63S478.92,414.87,479.1,416.09Z"/><path class="cls-3" d="M479.1,416.09a41.81,41.81,0,0,0-10,27h-1.46a181.15,181.15,0,0,0-7-50,70.84,70.84,0,0,1,10.65-8.77c.25.72.5,1.44.74,2.17.17.48.33,1,.48,1.46s.31,1,.47,1.48l.06.19c.37,1.15.73,2.3,1.07,3.47.53,1.87,1,3.75,1.5,5.65q.36,1.41.69,2.85c.28,1.18.54,2.36.79,3.55,0,0,0,.06,0,.09.25,1.18.49,2.37.71,3.56s.45,2.42.66,3.63S478.92,414.87,479.1,416.09Z"/><path class="cls-2" d="M428.16,315c-2.78,1.78-5.49,3.66-8.11,5.6a182.44,182.44,0,0,0-21.63-20.14c2.2-1.74,4.43-3.39,6.73-5.05h0c1.7,1.24,3.4,2.48,5.07,3.75.56.43,1.11.85,1.66,1.29s1.26,1,1.89,1.53a2.11,2.11,0,0,1,.23.19c.79.65,1.59,1.31,2.37,2l2.34,2c1.54,1.35,3.07,2.73,4.57,4.13.83.77,1.64,1.55,2.45,2.33S427.36,314.18,428.16,315Z"/><path class="cls-3" d="M428.16,315c-2.78,1.78-5.49,3.66-8.11,5.6a182.44,182.44,0,0,0-21.63-20.14c2.2-1.74,4.43-3.39,6.73-5.05h0c1.7,1.24,3.4,2.48,5.07,3.75.56.43,1.11.85,1.66,1.29s1.26,1,1.89,1.53a2.11,2.11,0,0,1,.23.19c.79.65,1.59,1.31,2.37,2l2.34,2c1.54,1.35,3.07,2.73,4.57,4.13.83.77,1.64,1.55,2.45,2.33S427.36,314.18,428.16,315Z"/><path class="cls-4" d="M467.67,443.13H438.53a151.79,151.79,0,0,0-24.12-82.24,148.85,148.85,0,0,0-16-20.78v0a153.81,153.81,0,0,0-21.66-19.49,151.6,151.6,0,0,0-90.85-30.07H154.63a14.57,14.57,0,0,1,0-29.14H285.91a181.62,181.62,0,0,1,134.14,59.21,186.55,186.55,0,0,1,16,20.21,184,184,0,0,1,24.61,52.31A181.15,181.15,0,0,1,467.67,443.13Z"/><path class="cls-4" d="M412.73,443.13H383.59A96.9,96.9,0,0,0,367.82,390a98.48,98.48,0,0,0-12.88-16,89.5,89.5,0,0,0-8.78-7.74,97,97,0,0,0-60.25-20.88H126.17a14.57,14.57,0,0,1,0-29.14H285.91a126.55,126.55,0,0,1,96.45,44.61,128.26,128.26,0,0,1,16.06,23.67A126.32,126.32,0,0,1,412.73,443.13Z"/><path class="cls-4" d="M356.81,443.12H327.67a41.77,41.77,0,0,0-41.76-41.76H100.62a14.57,14.57,0,0,1-14.57-14.57h0a14.57,14.57,0,0,1,14.57-14.57H285.91a71,71,0,0,1,70.9,70.9Z"/><text class="cls-5" transform="translate(86.05 575.1)">RKSI </text><text class="cls-5" transform="translate(382.04 576.41)">BOOK</text><path class="cls-6" d="M736.77,453v10.42a9.87,9.87,0,0,1-9.87,9.88h-657a9.88,9.88,0,0,1-9.88-9.88V453a9.87,9.87,0,0,1,9.88-9.87h657A9.87,9.87,0,0,1,736.77,453Z"/></g></g></svg>