<svg xmlns="http://www.w3.org/2000/svg" viewBox="0 0 800 800"><defs><style>.cls-1{isolation:isolate;}.cls-2,.cls-5{fill:#fff;}.cls-3{mix-blend-mode:multiply;opacity:0.65;}.cls-4{fill:#07509f;}.cls-5{font-size:97.13px;font-family:ArialRoundedMTBold, Arial Rounded MT Bold;}.cls-6{fill:#9b8579;}</style></defs><g class="cls-1"><g id="Layer_1" data-name="Layer 1"><path class="cls-2" d="M459.45,332.31a96.91,96.91,0,0,1,50.21-14h0V289.15a126.18,126.18,0,0,0-65.8,18.46c1.49,2,3,3.95,4.44,6A178.88,178.88,0,0,1,459.45,332.31Z"/><path class="cls-2" d="M509.66,345.07h0a70.52,70.52,0,0,0-39.56,12.09c1,2.9,1.95,5.82,2.8,8.78a180.4,180.4,0,0,1,5,23c.73-.86,1.47-1.7,2.26-2.5a41.78,41.78,0,0,1,29.52-12.23V345.07Z"/><polygon class="cls-2" points="466.43 415.97 467.89 415.97 467.89 415.96 466.43 415.96 466.43 415.97"/><path class="cls-2" d="M426.92,287.82a151.63,151.63,0,0,1,82.74-24.47h0V234.21a180.66,180.66,0,0,0-105.74,34c2.28,1.63,4.53,3.31,6.73,5A184,184,0,0,1,426.92,287.82Z"/><path class="cls-2" d="M509.66,263.34H640.94a14.57,14.57,0,0,0,14.57-14.57h0a14.57,14.57,0,0,0-14.57-14.57H509.66Z"/><polygon class="cls-2" points="509.66 263.34 509.66 234.21 509.65 234.21 509.65 263.34 509.66 263.34"/><path class="cls-2" d="M509.66,318.29H669.38A14.57,14.57,0,0,0,684,303.72h0a14.58,14.58,0,0,0-14.57-14.57H509.66Z"/><polygon class="cls-2" points="509.66 318.29 509.66 289.15 509.65 289.15 509.65 318.29 509.66 318.29"/><path class="cls-2" d="M509.66,345.07v29.14H694.93a14.57,14.57,0,0,0,14.57-14.57h0a14.57,14.57,0,0,0-14.57-14.57Z"/><polygon class="cls-2" points="509.66 345.07 509.65 345.07 509.65 374.21 509.66 374.21 509.66 345.07"/><path class="cls-2" d="M459.44,332.31a102,102,0,0,0-10.07,6.86,178.26,178.26,0,0,0-14.53-25.54c2.91-2.14,5.92-4.12,9-6,1.49,2,3,3.95,4.43,6A172.38,172.38,0,0,1,459.44,332.31Z"/><path class="cls-3" d="M459.44,332.31a102,102,0,0,0-10.07,6.86,178.26,178.26,0,0,0-14.53-25.54c2.91-2.14,5.92-4.12,9-6,1.49,2,3,3.95,4.43,6A172.38,172.38,0,0,1,459.44,332.31Z"/><path class="cls-2" d="M477.86,388.93a41.81,41.81,0,0,0-10,27h-1.46a180.77,180.77,0,0,0-7-50,70.84,70.84,0,0,1,10.65-8.77q1.52,4.32,2.82,8.77A178.87,178.87,0,0,1,477.86,388.93Z"/><path class="cls-3" d="M477.86,388.93a41.81,41.81,0,0,0-10,27h-1.46a180.77,180.77,0,0,0-7-50,70.84,70.84,0,0,1,10.65-8.77q1.52,4.32,2.82,8.77A178.87,178.87,0,0,1,477.86,388.93Z"/><path class="cls-2" d="M426.94,287.82c-2.79,1.78-5.51,3.66-8.13,5.6a182.44,182.44,0,0,0-21.63-20.14c2.2-1.74,4.44-3.39,6.74-5,2.26,1.66,4.53,3.31,6.73,5A193.65,193.65,0,0,1,426.94,287.82Z"/><path class="cls-3" d="M426.94,287.82c-2.79,1.78-5.51,3.66-8.13,5.6a182.44,182.44,0,0,0-21.63-20.14c2.2-1.74,4.44-3.39,6.74-5,2.26,1.66,4.53,3.31,6.73,5A193.65,193.65,0,0,1,426.94,287.82Z"/><path class="cls-4" d="M411.49,416H382.35a97,97,0,0,0-15.76-53.1,98.54,98.54,0,0,0-12.89-16,90.56,90.56,0,0,0-8.77-7.74,97.05,97.05,0,0,0-60.25-20.88V289.15a126.48,126.48,0,0,1,96.44,44.61,128.26,128.26,0,0,1,16.06,23.67A126.32,126.32,0,0,1,411.49,416Z"/><path class="cls-4" d="M466.43,416H437.3a151.79,151.79,0,0,0-24.12-82.24,148.92,148.92,0,0,0-16-20.78v0a153.13,153.13,0,0,0-112.5-49.56V234.21a181.62,181.62,0,0,1,134.13,59.21,186.64,186.64,0,0,1,16,20.21,184.33,184.33,0,0,1,24.6,52.31A180.77,180.77,0,0,1,466.43,416Z"/><path class="cls-4" d="M284.68,234.21v29.14H153.39a14.58,14.58,0,0,1-14.57-14.57h0a14.57,14.57,0,0,1,14.57-14.57Z"/><path class="cls-4" d="M284.68,289.15v29.14H124.93a14.58,14.58,0,0,1-14.57-14.57h0a14.57,14.57,0,0,1,14.57-14.57Z"/><path class="cls-4" d="M355.58,416H326.44a41.79,41.79,0,0,0-41.76-41.77H99.39a14.57,14.57,0,0,1-14.57-14.57h0a14.57,14.57,0,0,1,14.57-14.57H284.68A71,71,0,0,1,355.58,416Z"/><text class="cls-5" transform="translate(117.84 564.24)">RKSI </text><text class="cls-5" transform="translate(380.78 565.4)">BOOK</text><rect class="cls-6" x="58.83" y="415.97" width="676.71" height="30.17" rx="9.87"/><rect class="cls-4" x="110.36" y="467.09" width="573.58" height="15.09" rx="7.54"/><rect class="cls-4" x="110.36" y="575.06" width="573.58" height="15.09" rx="7.54"/></g></g></svg>